<svg preserveAspectRatio="none" width="100%" height="100%" overflow="visible" style="display: block;" viewBox="0 0 7.08301 7.08301" fill="none" xmlns="http://www.w3.org/2000/svg">
<path id="Vector (Stroke)" d="M5.83301 1.45801C5.83283 1.3431 5.73995 1.25 5.625 1.25H1.45801C1.34321 1.25018 1.25018 1.34321 1.25 1.45801V5.625C1.25 5.73995 1.3431 5.83283 1.45801 5.83301H5.625C5.74006 5.83301 5.83301 5.74006 5.83301 5.625V1.45801ZM7.08301 5.625C7.08301 6.43042 6.43042 7.08301 5.625 7.08301H1.45801C0.652742 7.08283 0 6.43031 0 5.625V1.45801C0.000175862 0.652851 0.652851 0.000175862 1.45801 0H5.625C6.43031 0 7.08283 0.652742 7.08301 1.45801V5.625Z" fill="var(--fill-0, white)"/>
</svg>
