<svg preserveAspectRatio="none" width="100%" height="100%" overflow="visible" style="display: block;" viewBox="0 0 14.333 13" fill="none" xmlns="http://www.w3.org/2000/svg">
<path id="Vector (Stroke)" d="M8 10.5C8 10.0404 7.62659 9.66717 7.16699 9.66699C6.70725 9.66699 6.33301 10.0403 6.33301 10.5V12H8V10.5ZM8.5 6C8.77614 6 9 6.22386 9 6.5C9 6.77614 8.77614 7 8.5 7H5.83301C5.55701 6.99982 5.33301 6.77603 5.33301 6.5C5.33301 6.22397 5.55701 6.00018 5.83301 6H8.5ZM8.5 3.33301C8.77603 3.33301 8.99982 3.55702 9 3.83301C9 4.10915 8.77614 4.33301 8.5 4.33301H5.83301C5.55702 4.33283 5.33301 4.10904 5.33301 3.83301C5.33318 3.55712 5.55712 3.33318 5.83301 3.33301H8.5ZM13.333 4.5C13.333 4.04026 12.9597 3.66699 12.5 3.66699H11.667V12H12.5C12.9596 12 13.3328 11.6266 13.333 11.167V4.5ZM1 11.167C1.00018 11.6265 1.37352 11.9998 1.83301 12H2.66699V5.66699H1.83301C1.37341 5.66717 1 6.04036 1 6.5V11.167ZM10.667 1.83301C10.6668 1.37341 10.2926 1 9.83301 1H4.5C4.04036 1 3.66717 1.37341 3.66699 1.83301V12H5.33301V10.5C5.33301 9.48797 6.15496 8.66699 7.16699 8.66699C8.17887 8.66717 9 9.48808 9 10.5V12H10.667V1.83301ZM11.667 2.66699H12.5C13.512 2.66699 14.333 3.48797 14.333 4.5V11.167C14.3328 12.1789 13.5119 13 12.5 13H1.83301C0.821236 12.9998 0.000175903 12.1788 0 11.167V6.5C2.57959e-07 5.48808 0.821128 4.66717 1.83301 4.66699H2.66699V1.83301C2.66717 0.821128 3.48808 0 4.5 0H9.83301C10.8449 0 11.6668 0.821128 11.667 1.83301V2.66699Z" fill="var(--fill-0, #F59E0B)"/>
</svg>
