<svg preserveAspectRatio="none" width="100%" height="100%" overflow="visible" style="display: block;" viewBox="0 0 16 16" fill="none" xmlns="http://www.w3.org/2000/svg">
<g id="SVG">
<g id="Vector">
<path d="M12.6663 7.33301C13.0345 7.33301 13.3333 7.63181 13.3333 8C13.3333 8.36819 13.0345 8.66699 12.6663 8.66699H3.33333C2.96514 8.66699 2.66634 8.36819 2.66634 8C2.66634 7.63181 2.96514 7.33301 3.33333 7.33301H12.6663Z" fill="var(--fill-0, #1E293B)"/>
<path d="M7.52832 2.86165C7.78867 2.6013 8.21133 2.6013 8.47168 2.86165L13.1377 7.52865C13.398 7.789 13.398 8.21068 13.1377 8.47103L8.47168 13.138C8.21133 13.3984 7.78867 13.3984 7.52832 13.138C7.26824 12.8778 7.26835 12.456 7.52832 12.1956L11.7236 7.99935L7.52832 3.80501C7.26797 3.54466 7.26797 3.122 7.52832 2.86165Z" fill="var(--fill-0, #1E293B)"/>
</g>
</g>
</svg>
