<svg preserveAspectRatio="none" width="100%" height="100%" overflow="visible" style="display: block;" viewBox="0 0 16 16" fill="none" xmlns="http://www.w3.org/2000/svg">
<g id="SVG">
<path id="Vector" d="M9.33333 6.35733V4.66667C9.33333 3.19489 10.5282 2 12 2H13C13.184 2 13.3333 2.14936 13.3333 2.33333V3.33333C13.3333 4.80511 12.1384 6 10.6667 6C9.19489 6 8 7.19489 8 8.66667C8 10 8.66667 10.6667 8.66667 12C8.66667 12.7212 8.43274 13.423 8 14" stroke="var(--stroke-0, #9CA3AF)" stroke-linecap="round" stroke-linejoin="round"/>
<path id="Vector_2" d="M2.66667 6C3.67673 5.24246 5.0281 5.1206 6.15738 5.68524C7.28666 6.24988 8 7.40409 8 8.66667C6.98994 9.42421 5.63857 9.54606 4.50929 8.98142C3.38001 8.41678 2.66667 7.26257 2.66667 6" stroke="var(--stroke-0, #9CA3AF)" stroke-linecap="round" stroke-linejoin="round"/>
<path id="Vector_3" d="M3.33333 14H12.6667" stroke="var(--stroke-0, #9CA3AF)" stroke-linecap="round" stroke-linejoin="round"/>
</g>
</svg>
