<svg preserveAspectRatio="none" width="100%" height="100%" overflow="visible" style="display: block;" viewBox="0 0 16 16" fill="none" xmlns="http://www.w3.org/2000/svg">
<g id="SVG">
<path id="Vector" d="M9.33333 12V4C9.33333 3.26411 8.73589 2.66667 8 2.66667H2.66667C1.93078 2.66667 1.33333 3.26411 1.33333 4V11.3333C1.33333 11.7013 1.63206 12 2 12H3.33333" stroke="var(--stroke-0, #9CA3AF)" stroke-linecap="round" stroke-linejoin="round"/>
<path id="Vector_2" d="M10 12H6" stroke="var(--stroke-0, #9CA3AF)" stroke-linecap="round" stroke-linejoin="round"/>
<path id="Vector_3" d="M12.6667 12H14C14.3679 12 14.6667 11.7013 14.6667 11.3333V8.9C14.6664 8.74871 14.6147 8.60201 14.52 8.484L12.2 5.584C12.0737 5.42584 11.8824 5.33362 11.68 5.33333H9.33333" stroke="var(--stroke-0, #9CA3AF)" stroke-linecap="round" stroke-linejoin="round"/>
<path id="Vector_4" d="M10 12C10 12.7359 10.5974 13.3333 11.3333 13.3333C12.0692 13.3333 12.6667 12.7359 12.6667 12C12.6667 11.2641 12.0692 10.6667 11.3333 10.6667C10.5974 10.6667 10 11.2641 10 12V12" stroke="var(--stroke-0, #9CA3AF)" stroke-linecap="round" stroke-linejoin="round"/>
<path id="Vector_5" d="M3.33333 12C3.33333 12.7359 3.93078 13.3333 4.66667 13.3333C5.40255 13.3333 6 12.7359 6 12C6 11.2641 5.40255 10.6667 4.66667 10.6667C3.93078 10.6667 3.33333 11.2641 3.33333 12V12" stroke="var(--stroke-0, #9CA3AF)" stroke-linecap="round" stroke-linejoin="round"/>
</g>
</svg>
