<svg preserveAspectRatio="none" width="100%" height="100%" overflow="visible" style="display: block;" viewBox="0 0 14 14" fill="none" xmlns="http://www.w3.org/2000/svg">
<g id="SVG">
<path id="Vector" d="M8.2285 3.23925C8.55681 3.40331 8.94319 3.40331 9.2715 3.23925L11.4059 2.17175C11.5869 2.08132 11.8018 2.09111 11.9738 2.19761C12.1458 2.30411 12.2503 2.49212 12.25 2.69442V10.1401C12.2499 10.361 12.125 10.5628 11.9274 10.6616L9.2715 11.9898C8.94319 12.1539 8.55681 12.1539 8.2285 11.9898L5.7715 10.7613C5.44319 10.5973 5.05681 10.5973 4.7285 10.7613L2.59408 11.8288C2.41303 11.9193 2.19801 11.9095 2.02598 11.8028C1.85396 11.6962 1.7495 11.508 1.75 11.3056V3.8605C1.75012 3.63961 1.87499 3.43774 2.07258 3.339L4.7285 2.01075C5.05681 1.84669 5.44319 1.84669 5.7715 2.01075L8.2285 3.23925" stroke="var(--stroke-0, #475569)" stroke-width="0.875" stroke-linecap="round" stroke-linejoin="round"/>
<path id="Vector_2" d="M8.75 3.36233V12.1123" stroke="var(--stroke-0, #475569)" stroke-width="0.875" stroke-linecap="round" stroke-linejoin="round"/>
<path id="Vector_3" d="M5.25 1.88767V10.6377" stroke="var(--stroke-0, #475569)" stroke-width="0.875" stroke-linecap="round" stroke-linejoin="round"/>
</g>
</svg>
