<svg preserveAspectRatio="none" width="100%" height="100%" overflow="visible" style="display: block;" viewBox="0 0 13 13" fill="none" xmlns="http://www.w3.org/2000/svg">
<path id="Vector (Stroke)" d="M10.667 5.83301C10.6668 3.16575 8.5003 1 5.83301 1C3.16586 1.00018 1.00018 3.16586 1 5.83301C1 8.5003 3.16575 10.6668 5.83301 10.667C8.50041 10.667 10.667 8.50041 10.667 5.83301ZM11.667 5.83301C11.667 7.26297 11.1501 8.57289 10.2949 9.58789L12.8535 12.1465C13.0488 12.3417 13.0488 12.6583 12.8535 12.8535C12.6583 13.0488 12.3417 13.0488 12.1465 12.8535L9.58789 10.2949C8.57289 11.1501 7.26297 11.667 5.83301 11.667C2.61347 11.6668 0 9.05259 0 5.83301C0.000176241 2.61358 2.61358 0.000176238 5.83301 0C9.05259 0 11.6668 2.61347 11.667 5.83301Z" fill="var(--fill-0, white)"/>
</svg>
