<svg preserveAspectRatio="none" width="100%" height="100%" overflow="visible" style="display: block;" viewBox="0 0 14 14" fill="none" xmlns="http://www.w3.org/2000/svg">
<g id="SVG">
<path id="Vector" d="M2.33333 1.75H5.25C5.57195 1.75 5.83333 2.01138 5.83333 2.33333V5.25C5.83333 5.57195 5.57195 5.83333 5.25 5.83333H2.33333C2.01138 5.83333 1.75 5.57195 1.75 5.25V2.33333C1.75 2.01138 2.01138 1.75 2.33333 1.75V1.75" stroke="var(--stroke-0, #475569)" stroke-width="0.875" stroke-linecap="round" stroke-linejoin="round"/>
<path id="Vector_2" d="M8.75033 1.75H11.667C11.9889 1.75 12.2503 2.01138 12.2503 2.33333V5.25C12.2503 5.57195 11.9889 5.83333 11.667 5.83333H8.75033C8.42838 5.83333 8.16699 5.57195 8.16699 5.25V2.33333C8.16699 2.01138 8.42838 1.75 8.75033 1.75V1.75" stroke="var(--stroke-0, #475569)" stroke-width="0.875" stroke-linecap="round" stroke-linejoin="round"/>
<path id="Vector_3" d="M8.75033 8.1665H11.667C11.9889 8.1665 12.2503 8.42789 12.2503 8.74984V11.6665C12.2503 11.9885 11.9889 12.2498 11.667 12.2498H8.75033C8.42838 12.2498 8.16699 11.9885 8.16699 11.6665V8.74984C8.16699 8.42789 8.42838 8.1665 8.75033 8.1665V8.1665" stroke="var(--stroke-0, #475569)" stroke-width="0.875" stroke-linecap="round" stroke-linejoin="round"/>
<path id="Vector_4" d="M2.33333 8.16667H5.25C5.57195 8.16667 5.83333 8.42805 5.83333 8.75V11.6667C5.83333 11.9886 5.57195 12.25 5.25 12.25H2.33333C2.01138 12.25 1.75 11.9886 1.75 11.6667V8.75C1.75 8.42805 2.01138 8.16667 2.33333 8.16667V8.16667" stroke="var(--stroke-0, #475569)" stroke-width="0.875" stroke-linecap="round" stroke-linejoin="round"/>
</g>
</svg>
