<svg preserveAspectRatio="none" width="100%" height="100%" overflow="visible" style="display: block;" viewBox="0 0 16 16" fill="none" xmlns="http://www.w3.org/2000/svg">
<g id="SVG">
<path id="Vector" d="M13.3333 6.66667C13.3333 9.99533 9.64067 13.462 8.40067 14.5327C8.16336 14.7111 7.83664 14.7111 7.59933 14.5327C6.35933 13.462 2.66667 9.99533 2.66667 6.66667C2.66667 3.72312 5.05645 1.33333 8 1.33333C10.9435 1.33333 13.3333 3.72312 13.3333 6.66667" stroke="var(--stroke-0, #9CA3AF)" stroke-linecap="round" stroke-linejoin="round"/>
<path id="Vector_2" d="M6 6.66667C6 7.7705 6.89617 8.66667 8 8.66667C9.10383 8.66667 10 7.7705 10 6.66667C10 5.56284 9.10383 4.66667 8 4.66667C6.89617 4.66667 6 5.56284 6 6.66667V6.66667" stroke="var(--stroke-0, #9CA3AF)" stroke-linecap="round" stroke-linejoin="round"/>
</g>
</svg>
