<svg preserveAspectRatio="none" width="100%" height="100%" overflow="visible" style="display: block;" viewBox="0 0 16 16" fill="none" xmlns="http://www.w3.org/2000/svg">
<g id="SVG">
<path id="Vector" d="M10.6667 14V12.6667C10.6667 11.1949 9.47177 10 8 10H4C2.52823 10 1.33333 11.1949 1.33333 12.6667V14" stroke="var(--stroke-0, #FF6B1A)" stroke-linecap="round" stroke-linejoin="round"/>
<path id="Vector_2" d="M10.6667 2.08533C11.8428 2.39024 12.6641 3.45165 12.6641 4.66667C12.6641 5.88169 11.8428 6.94309 10.6667 7.248" stroke="var(--stroke-0, #FF6B1A)" stroke-linecap="round" stroke-linejoin="round"/>
<path id="Vector_3" d="M14.6667 14V12.6667C14.6658 11.4514 13.8433 10.3905 12.6667 10.0867" stroke="var(--stroke-0, #FF6B1A)" stroke-linecap="round" stroke-linejoin="round"/>
<path id="Vector_4" d="M3.33333 4.66667C3.33333 6.13844 4.52823 7.33333 6 7.33333C7.47177 7.33333 8.66667 6.13844 8.66667 4.66667C8.66667 3.19489 7.47177 2 6 2C4.52823 2 3.33333 3.19489 3.33333 4.66667H3.33333" stroke="var(--stroke-0, #FF6B1A)" stroke-linecap="round" stroke-linejoin="round"/>
</g>
</svg>
