<svg preserveAspectRatio="none" width="100%" height="100%" overflow="visible" style="display: block;" viewBox="0 0 14 14" fill="none" xmlns="http://www.w3.org/2000/svg">
<g id="SVG">
<path id="Vector" d="M2.33333 1.75H5.25C5.57195 1.75 5.83333 2.01138 5.83333 2.33333V5.25C5.83333 5.57195 5.57195 5.83333 5.25 5.83333H2.33333C2.01138 5.83333 1.75 5.57195 1.75 5.25V2.33333C1.75 2.01138 2.01138 1.75 2.33333 1.75V1.75" stroke="var(--stroke-0, white)" stroke-width="0.875" stroke-linecap="round" stroke-linejoin="round"/>
<path id="Vector_2" d="M8.75 1.75H11.6667C11.9886 1.75 12.25 2.01138 12.25 2.33333V5.25C12.25 5.57195 11.9886 5.83333 11.6667 5.83333H8.75C8.42805 5.83333 8.16667 5.57195 8.16667 5.25V2.33333C8.16667 2.01138 8.42805 1.75 8.75 1.75V1.75" stroke="var(--stroke-0, white)" stroke-width="0.875" stroke-linecap="round" stroke-linejoin="round"/>
<path id="Vector_3" d="M8.75 8.16667H11.6667C11.9886 8.16667 12.25 8.42805 12.25 8.75V11.6667C12.25 11.9886 11.9886 12.25 11.6667 12.25H8.75C8.42805 12.25 8.16667 11.9886 8.16667 11.6667V8.75C8.16667 8.42805 8.42805 8.16667 8.75 8.16667V8.16667" stroke="var(--stroke-0, white)" stroke-width="0.875" stroke-linecap="round" stroke-linejoin="round"/>
<path id="Vector_4" d="M2.33333 8.16667H5.25C5.57195 8.16667 5.83333 8.42805 5.83333 8.75V11.6667C5.83333 11.9886 5.57195 12.25 5.25 12.25H2.33333C2.01138 12.25 1.75 11.9886 1.75 11.6667V8.75C1.75 8.42805 2.01138 8.16667 2.33333 8.16667V8.16667" stroke="var(--stroke-0, white)" stroke-width="0.875" stroke-linecap="round" stroke-linejoin="round"/>
</g>
</svg>
