<svg preserveAspectRatio="none" width="100%" height="100%" overflow="visible" style="display: block;" viewBox="0 0 20 20" fill="none" xmlns="http://www.w3.org/2000/svg">
<g id="SVG">
<path id="Vector (Stroke)" d="M17.8356 9.99963C17.8354 9.8393 17.7208 9.70193 17.5631 9.67248H17.5621L12.9303 8.79651C12.0545 8.63098 11.3694 7.94574 11.2037 7.06994L10.3278 2.43811V2.43713C10.2983 2.27937 10.1601 2.16467 9.99963 2.16467C9.8393 2.16485 9.70193 2.27949 9.67248 2.43713V2.43811L8.79651 7.06994C8.6309 7.94568 7.94568 8.6309 7.06994 8.79651L2.43811 9.67248H2.43713C2.27949 9.70193 2.16485 9.8393 2.16467 9.99963C2.16467 10.1601 2.27937 10.2983 2.43713 10.3278H2.43811L7.06994 11.2037C7.94574 11.3694 8.63098 12.0545 8.79651 12.9303L9.67248 17.5621V17.5631C9.70193 17.7208 9.8393 17.8354 9.99963 17.8356C10.1601 17.8356 10.2983 17.7209 10.3278 17.5631V17.5621L11.2037 12.9303C11.3693 12.0544 12.0544 11.3693 12.9303 11.2037L17.5621 10.3278H17.5631C17.7209 10.2983 17.8356 10.1601 17.8356 9.99963ZM4.49963 16.6666C4.49961 16.023 3.97719 15.4998 3.33362 15.4996C2.68991 15.4996 2.16665 16.0229 2.16662 16.6666C2.16662 17.3103 2.6899 17.8336 3.33362 17.8336C3.9772 17.8335 4.49963 17.3102 4.49963 16.6666ZM16.1666 4.99963V3.83362H14.9996C14.7238 3.83342 14.4998 3.60951 14.4996 3.33362C14.4996 3.0576 14.7237 2.83382 14.9996 2.83362H16.1666V1.66662C16.1666 1.39052 16.3905 1.16665 16.6666 1.16662C16.9428 1.16662 17.1666 1.3905 17.1666 1.66662V2.83362H18.3336C18.6096 2.83377 18.8336 3.05757 18.8336 3.33362C18.8335 3.60953 18.6095 3.83346 18.3336 3.83362H17.1666V4.99963C17.1666 5.27577 16.9428 5.49963 16.6666 5.49963C16.3905 5.49961 16.1666 5.27576 16.1666 4.99963ZM5.49963 16.6666C5.49963 17.8625 4.52949 18.8335 3.33362 18.8336C2.13762 18.8336 1.16662 17.8626 1.16662 16.6666C1.16665 15.4706 2.13763 14.4996 3.33362 14.4996C4.52947 14.4998 5.49961 15.4707 5.49963 16.6666ZM18.8356 9.99963C18.8356 10.6415 18.3777 11.1913 17.7467 11.3092L17.7477 11.3102L13.1158 12.1862C12.6443 12.2753 12.2753 12.6443 12.1862 13.1158L11.3102 17.7477C11.1919 18.3783 10.6413 18.8356 9.99963 18.8356C9.35809 18.8354 8.80725 18.3782 8.68909 17.7477L7.81409 13.1158C7.7249 12.6442 7.35508 12.2753 6.88342 12.1862L2.25256 11.3102V11.3092C1.62196 11.191 1.16467 10.6413 1.16467 9.99963C1.16485 9.35801 1.62192 8.80716 2.25256 8.68909L6.88342 7.81409C7.35516 7.72497 7.72497 7.35516 7.81409 6.88342L8.68909 2.25256C8.80716 1.62192 9.35801 1.16485 9.99963 1.16467C10.6414 1.16467 11.192 1.62187 11.3102 2.25256L12.1862 6.88342C12.2753 7.35508 12.6442 7.7249 13.1158 7.81409L17.7477 8.68909H17.7467C18.3776 8.80693 18.8354 9.35782 18.8356 9.99963Z" fill="url(#paint0_linear_0_81)"/>
</g>
<defs>
<linearGradient id="paint0_linear_0_81" x1="10.0001" y1="1.16467" x2="10.0001" y2="18.8356" gradientUnits="userSpaceOnUse">
<stop stop-color="#F37B39"/>
<stop offset="1" stop-color="#D65A18"/>
</linearGradient>
</defs>
</svg>
