<svg preserveAspectRatio="none" width="100%" height="100%" overflow="visible" style="display: block;" viewBox="0 0 16.25 16.25" fill="none" xmlns="http://www.w3.org/2000/svg">
<path id="Vector (Stroke)" d="M15 2.29199C15 1.7167 14.5333 1.25 13.958 1.25H2.29199C1.7167 1.25 1.25 1.7167 1.25 2.29199V13.958C1.25 14.5333 1.7167 15 2.29199 15H13.958C14.5333 15 15 14.5333 15 13.958V2.29199ZM16.25 13.958C16.25 15.2237 15.2237 16.25 13.958 16.25H2.29199C1.02634 16.25 0 15.2237 0 13.958V2.29199C0 1.02634 1.02634 0 2.29199 0H13.958C15.2237 0 16.25 1.02634 16.25 2.29199V13.958Z" fill="var(--fill-0, #475569)"/>
</svg>
