<svg preserveAspectRatio="none" width="100%" height="100%" overflow="visible" style="display: block;" viewBox="0 0 11.25 11.2505" fill="none" xmlns="http://www.w3.org/2000/svg">
<path id="Vector (Stroke)" d="M10 5.625C10 3.2106 8.0394 1.25 5.625 1.25C3.2106 1.25 1.25 3.2106 1.25 5.625C1.25 6.33599 1.37875 7.16098 2.31738 8.09961C2.93573 8.71799 3.53611 9.49164 3.73828 10.502C3.80595 10.8403 3.58631 11.1704 3.24805 11.2383C2.9097 11.306 2.57958 11.0863 2.51172 10.748C2.3805 10.092 1.9808 9.53158 1.43262 8.9834C0.204868 7.75548 0 6.58059 0 5.625C0 2.52025 2.52025 0 5.625 0C8.72975 0 11.25 2.52025 11.25 5.625C11.25 6.85243 10.7807 8.10068 9.81641 8.98242L9.81738 8.9834C9.19203 9.60875 8.87056 10.0867 8.73828 10.748C8.67042 11.0863 8.3403 11.306 8.00195 11.2383C7.66369 11.1704 7.44405 10.8403 7.51172 10.502C7.71282 9.49694 8.22481 8.80745 8.93262 8.09961C8.94036 8.09186 8.94889 8.08448 8.95703 8.07715C9.64267 7.46004 10 6.5538 10 5.625Z" fill="var(--fill-0, #475569)"/>
</svg>
