<svg preserveAspectRatio="none" width="100%" height="100%" overflow="visible" style="display: block;" viewBox="0 0 14.333 13" fill="none" xmlns="http://www.w3.org/2000/svg">
<path id="Vector (Stroke)" d="M9.33301 12.5V11.167C9.33301 9.97147 8.36247 9.00018 7.16699 9H3.16699C1.97136 9 1 9.97136 1 11.167V12.5C1 12.7761 0.776142 13 0.5 13C0.223858 13 0 12.7761 0 12.5V11.167C0 9.41908 1.41908 8 3.16699 8H7.16699C8.91476 8.00018 10.333 9.41918 10.333 11.167V12.5C10.333 12.7761 10.1091 13 9.83301 13C9.55702 12.9998 9.33301 12.776 9.33301 12.5ZM13.333 12.5V11.167C13.3322 10.1796 12.664 9.31716 11.708 9.07031C11.4409 9.00111 11.2807 8.7291 11.3496 8.46191C11.4186 8.19464 11.6907 8.03371 11.958 8.10254C13.3552 8.46329 14.3318 9.72302 14.333 11.166V12.5C14.333 12.7761 14.1091 13 13.833 13C13.557 12.9998 13.333 12.776 13.333 12.5ZM7.33301 3.16699C7.33301 1.97147 6.36247 1.00018 5.16699 1C3.97136 1 3 1.97136 3 3.16699C3.00018 4.36247 3.97147 5.33301 5.16699 5.33301C6.36237 5.33283 7.33283 4.36237 7.33301 3.16699ZM11.3311 3.16699C11.3311 2.17984 10.6635 1.31712 9.70801 1.06934C9.44071 1.00004 9.28033 0.727257 9.34961 0.459961C9.41891 0.192655 9.69168 0.0322645 9.95898 0.101562C11.3555 0.463718 12.3311 1.72423 12.3311 3.16699C12.3309 4.60967 11.3555 5.87035 9.95898 6.23242C9.69168 6.30172 9.41891 6.14035 9.34961 5.87305C9.28053 5.60585 9.44081 5.33294 9.70801 5.26367C10.6634 5.01589 11.3309 4.15399 11.3311 3.16699ZM8.33301 3.16699C8.33283 4.91465 6.91465 6.33283 5.16699 6.33301C3.41918 6.33301 2.00018 4.91476 2 3.16699C2 1.41908 3.41908 0 5.16699 0C6.91476 0.000175961 8.33301 1.41918 8.33301 3.16699Z" fill="var(--fill-0, #EC4899)"/>
</svg>
