<svg preserveAspectRatio="none" width="100%" height="100%" overflow="visible" style="display: block;" viewBox="0 0 13 14.33" fill="none" xmlns="http://www.w3.org/2000/svg">
<path id="Vector (Stroke)" d="M5.58496 0.244579C6.15121 -0.0816671 6.8477 -0.0813854 7.41406 0.244579L12.0811 2.91059L12.083 2.91157C12.6496 3.23872 12.9993 3.84322 13 4.49751V9.83149L12.9961 9.95356C12.9552 10.5605 12.6144 11.1106 12.083 11.4174L12.0811 11.4184L7.41602 14.0834L7.41699 14.0844C6.84976 14.4119 6.15024 14.4119 5.58301 14.0844V14.0834L0.918945 11.4184L0.916992 11.4174C0.350338 11.0903 0.000671118 10.4858 0 9.83149V4.49751L0.00390625 4.37544C0.0449391 3.76874 0.385778 3.21827 0.916992 2.91157L0.918945 2.91059L5.58496 0.243602V0.244579ZM1 9.83052L1.00781 9.94087C1.04173 10.1939 1.19006 10.4198 1.41406 10.5502L6.08105 13.2172L6.08301 13.2182C6.34084 13.3671 6.65916 13.3671 6.91699 13.2182L6.91895 13.2172L11.585 10.5502C11.8413 10.4014 11.9995 10.128 12 9.83149V4.49849C11.9997 4.20112 11.8405 3.92647 11.583 3.77778V3.77681L6.91895 1.11177L6.91699 1.11079C6.65916 0.961929 6.34084 0.961929 6.08301 1.11079L6.08105 1.11177L1.41602 3.77681C1.15852 3.9255 1.00035 4.20114 1 4.49849V9.83052Z" fill="var(--fill-0, #94A3B8)"/>
</svg>
