<svg preserveAspectRatio="none" width="100%" height="100%" overflow="visible" style="display: block;" viewBox="0 0 17.917 17.917" fill="none" xmlns="http://www.w3.org/2000/svg">
<path id="Vector (Stroke)" d="M16.667 2.29199C16.667 1.7167 16.2003 1.25 15.625 1.25H5.625C5.0497 1.25 4.58301 1.7167 4.58301 2.29199V15.625C4.58301 16.0005 4.49132 16.3541 4.33105 16.667H15.625C16.2003 16.667 16.667 16.2003 16.667 15.625V2.29199ZM1.25 15.625C1.25 16.1997 1.71731 16.667 2.29199 16.667C2.86652 16.6668 3.33301 16.1996 3.33301 15.625V7.08301H2.29199C1.7167 7.08301 1.25 7.5497 1.25 8.125V15.625ZM17.917 15.625C17.917 16.8907 16.8907 17.917 15.625 17.917H2.29199L2.05762 17.9053C0.902374 17.7879 0 16.811 0 15.625V8.125C0 6.85935 1.02634 5.83301 2.29199 5.83301H3.33301V2.29199C3.33301 1.02634 4.35935 0 5.625 0H15.625C16.8907 0 17.917 1.02634 17.917 2.29199V15.625Z" fill="var(--fill-0, #475569)"/>
</svg>
