<svg preserveAspectRatio="none" width="100%" height="100%" overflow="visible" style="display: block;" viewBox="0 0 7.91699 4.58301" fill="none" xmlns="http://www.w3.org/2000/svg">
<path id="Vector (Stroke)" d="M6.66699 1.45801C6.66682 1.3431 6.57296 1.25 6.45801 1.25H1.45801C1.34321 1.25018 1.25018 1.34321 1.25 1.45801V3.125C1.25 3.23995 1.3431 3.33283 1.45801 3.33301H6.45801C6.57307 3.33301 6.66699 3.24006 6.66699 3.125V1.45801ZM7.91699 3.125C7.91699 3.93042 7.26342 4.58301 6.45801 4.58301H1.45801C0.652742 4.58283 0 3.93031 0 3.125V1.45801C0.000175862 0.652851 0.652851 0.000175862 1.45801 0H6.45801C7.26331 0 7.91682 0.652742 7.91699 1.45801V3.125Z" fill="var(--fill-0, #475569)"/>
</svg>
