<svg preserveAspectRatio="none" width="100%" height="100%" overflow="visible" style="display: block;" viewBox="0 0 17.9163 16.25" fill="none" xmlns="http://www.w3.org/2000/svg">
<path id="Vector (Stroke)" d="M11.6663 15.625V13.9587C11.6663 12.4643 10.4531 11.2502 8.95874 11.25H3.95874C2.4642 11.25 1.25 12.4642 1.25 13.9587V15.625C1.25 15.9702 0.970178 16.25 0.625 16.25C0.279822 16.25 0 15.9702 0 15.625V13.9587C0 11.7738 1.77385 10 3.95874 10H8.95874C11.1434 10.0002 12.9163 11.774 12.9163 13.9587V15.625C12.9163 15.9702 12.6364 16.25 12.2913 16.25C11.9463 16.2498 11.6663 15.97 11.6663 15.625ZM16.6663 15.625V13.9587C16.6653 12.7245 15.83 11.6464 14.635 11.3379C14.3012 11.2514 14.1009 10.9114 14.187 10.5774C14.2733 10.2433 14.6134 10.0421 14.9475 10.1282C16.694 10.5791 17.9148 12.1538 17.9163 13.9575V15.625C17.9163 15.9702 17.6364 16.25 17.2913 16.25C16.9463 16.2498 16.6663 15.97 16.6663 15.625ZM9.16626 3.95874C9.16626 2.46434 7.95309 1.25022 6.45874 1.25C4.9642 1.25 3.75 2.4642 3.75 3.95874C3.75022 5.45309 4.96434 6.66626 6.45874 6.66626C7.95296 6.66604 9.16604 5.45296 9.16626 3.95874ZM14.1638 3.95874C14.1638 2.72479 13.3294 1.6464 12.135 1.33667C11.8009 1.25005 11.6004 0.909072 11.687 0.574951C11.7736 0.240819 12.1146 0.0403307 12.4487 0.126953C14.1944 0.579648 15.4138 2.15529 15.4138 3.95874C15.4136 5.76209 14.1944 7.33793 12.4487 7.79053C12.1146 7.87715 11.7736 7.67544 11.687 7.34131C11.6007 7.00731 11.801 6.66618 12.135 6.57959C13.3292 6.26986 14.1636 5.19248 14.1638 3.95874ZM10.4163 3.95874C10.416 6.14331 8.64331 7.91604 6.45874 7.91626C4.27398 7.91626 2.50022 6.14345 2.5 3.95874C2.5 1.77385 4.27385 0 6.45874 0C8.64345 0.000219951 10.4163 1.77398 10.4163 3.95874Z" fill="var(--fill-0, #475569)"/>
</svg>
