<svg preserveAspectRatio="none" width="100%" height="100%" overflow="visible" style="display: block;" viewBox="0 0 12 12" fill="none" xmlns="http://www.w3.org/2000/svg">
<g id="SVG">
<path id="Vector" d="M10 5C10 7.4965 7.2305 10.0965 6.3005 10.8995C6.12252 11.0333 5.87748 11.0333 5.6995 10.8995C4.7695 10.0965 2 7.4965 2 5C2 2.79234 3.79234 1 6 1C8.20766 1 10 2.79234 10 5" stroke="var(--stroke-0, #64748B)" stroke-linecap="round" stroke-linejoin="round"/>
<path id="Vector_2" d="M4.5 5C4.5 5.82787 5.17213 6.5 6 6.5C6.82787 6.5 7.5 5.82787 7.5 5C7.5 4.17213 6.82787 3.5 6 3.5C5.17213 3.5 4.5 4.17213 4.5 5V5" stroke="var(--stroke-0, #64748B)" stroke-linecap="round" stroke-linejoin="round"/>
</g>
</svg>
