<svg preserveAspectRatio="none" width="100%" height="100%" overflow="visible" style="display: block;" viewBox="0 0 20 20" fill="none" xmlns="http://www.w3.org/2000/svg">
<g id="SVG">
<path id="Vector" d="M3.33333 11.6667C3.01146 11.6678 2.71773 11.4834 2.57879 11.193C2.43985 10.9027 2.48055 10.5583 2.68333 10.3083L10.9333 1.80833C11.0608 1.66121 11.2731 1.62194 11.4448 1.71375C11.6164 1.80556 11.7016 2.00398 11.65 2.19167L10.05 7.20833C9.95423 7.46465 9.99039 7.75164 10.1467 7.97619C10.3031 8.20074 10.5597 8.33422 10.8333 8.33333H16.6667C16.9885 8.33224 17.2823 8.51661 17.4212 8.80695C17.5601 9.0973 17.5195 9.4417 17.3167 9.69167L9.06667 18.1917C8.93921 18.3388 8.72687 18.3781 8.55522 18.2862C8.38358 18.1944 8.29838 17.996 8.35 17.8083L9.95 12.7917C10.0458 12.5354 10.0096 12.2484 9.85326 12.0238C9.69691 11.7993 9.44028 11.6658 9.16667 11.6667H3.33333" stroke="var(--stroke-0, #1E293B)" stroke-width="1.25" stroke-linecap="round" stroke-linejoin="round"/>
</g>
</svg>
