<svg preserveAspectRatio="none" width="100%" height="100%" overflow="visible" style="display: block;" viewBox="0 0 14.333 13.6639" fill="none" xmlns="http://www.w3.org/2000/svg">
<path id="Vector (Stroke)" d="M13.333 1.83301C13.3328 1.37341 12.9596 1 12.5 1H1.83301C1.37352 1.00018 1.00018 1.37352 1 1.83301V12.626L2.42285 11.2041C2.76658 10.8603 3.2326 10.6671 3.71875 10.667H12.5C12.9597 10.667 13.333 10.2928 13.333 9.83301V1.83301ZM14.333 9.83301C14.333 10.845 13.512 11.667 12.5 11.667H3.71875C3.49776 11.667 3.28612 11.7548 3.12988 11.9111L1.66113 13.3789C1.38276 13.6571 0.964181 13.7404 0.600586 13.5898C0.23705 13.4392 5.08014e-05 13.084 0 12.6904V1.83301C0.000176096 0.821237 0.821237 0.000176096 1.83301 0H12.5C13.5119 0 14.3328 0.821128 14.333 1.83301V9.83301Z" fill="var(--fill-0, white)"/>
</svg>
