<svg preserveAspectRatio="none" width="100%" height="100%" overflow="visible" style="display: block;" viewBox="0 0 17.9163 17.9163" fill="none" xmlns="http://www.w3.org/2000/svg">
<path id="Vector (Stroke)" d="M8.95874 0C13.903 0.000219994 17.9163 4.01441 17.9163 8.95874C17.916 13.9029 13.9029 17.916 8.95874 17.9163C4.01441 17.9163 0.000219989 13.903 0 8.95874C0 4.01427 4.01427 0 8.95874 0ZM1.27808 9.58374C1.55773 13.058 4.14305 15.8836 7.50244 16.5271C5.96636 14.4605 5.1361 12.0371 5.01587 9.58374H1.27808ZM12.9004 9.58374C12.7801 12.0374 11.949 14.4603 10.4126 16.5271C13.7728 15.8842 16.3597 13.0586 16.6394 9.58374H12.9004ZM6.26831 9.58374C6.39993 12.0044 7.29655 14.39 8.95752 16.3525C10.6189 14.3899 11.5163 12.0047 11.6479 9.58374H6.26831ZM10.4126 1.38794C11.9497 3.45519 12.7803 5.87937 12.9004 8.33374H16.6394C16.3601 4.85843 13.7732 2.03078 10.4126 1.38794ZM8.95752 1.5625C7.29585 3.5254 6.3998 5.91244 6.26831 8.33374H11.6479C11.5164 5.91212 10.6196 3.52554 8.95752 1.5625ZM7.50366 1.38794C4.14329 2.03092 1.55743 4.85859 1.27808 8.33374H5.01587C5.13599 5.87944 5.96664 3.45515 7.50366 1.38794Z" fill="var(--fill-0, #6B7280)"/>
</svg>
