<svg preserveAspectRatio="none" width="100%" height="100%" overflow="visible" style="display: block;" viewBox="0 0 12.9163 16.25" fill="none" xmlns="http://www.w3.org/2000/svg">
<path id="Vector (Stroke)" d="M0 15.625V10.625C0 10.2798 0.279822 10 0.625 10C0.970178 10 1.25 10.2798 1.25 10.625V15.625C1.25 15.9702 0.970178 16.25 0.625 16.25C0.279822 16.25 0 15.9702 0 15.625ZM5.83374 15.625V0.625C5.83374 0.279822 6.11356 0 6.45874 0C6.80373 0.00021991 7.08374 0.279958 7.08374 0.625V15.625C7.08374 15.97 6.80373 16.2498 6.45874 16.25C6.11356 16.25 5.83374 15.9702 5.83374 15.625ZM11.6663 15.625V5.625C11.6663 5.27996 11.9463 5.00022 12.2913 5C12.6364 5 12.9163 5.27982 12.9163 5.625V15.625C12.9163 15.9702 12.6364 16.25 12.2913 16.25C11.9463 16.2498 11.6663 15.97 11.6663 15.625Z" fill="var(--fill-0, #6B7280)"/>
</svg>
