<svg preserveAspectRatio="none" width="100%" height="100%" overflow="visible" style="display: block;" viewBox="0 0 14.5837 17.916" fill="none" xmlns="http://www.w3.org/2000/svg">
<path id="Vector (Stroke)" d="M13.3337 7.29126C13.3335 3.95719 10.6254 1.25 7.29126 1.25C3.95733 1.25022 1.25022 3.95733 1.25 7.29126C1.25 9.16094 2.29918 11.1472 3.62427 12.8882C4.92021 14.5908 6.407 15.9642 7.17407 16.6284C7.24509 16.6775 7.33731 16.6772 7.40845 16.6284C8.17541 15.9643 9.66324 14.5913 10.9595 12.8882C12.2846 11.1472 13.3337 9.16094 13.3337 7.29126ZM9.16626 7.29126C9.16604 6.25684 8.32573 5.41626 7.29126 5.41626C6.25697 5.41648 5.41648 6.25697 5.41626 7.29126C5.41626 8.32573 6.25684 9.16604 7.29126 9.16626C8.32587 9.16626 9.16626 8.32587 9.16626 7.29126ZM10.4163 7.29126C10.4163 9.01623 9.01623 10.4163 7.29126 10.4163C5.56648 10.416 4.16626 9.01609 4.16626 7.29126C4.16648 5.56662 5.56662 4.16648 7.29126 4.16626C9.01609 4.16626 10.416 5.56648 10.4163 7.29126ZM14.5837 7.29126C14.5837 9.58238 13.3246 11.8446 11.9543 13.645C10.5695 15.4645 8.99142 16.9149 8.20068 17.5977C8.19016 17.6067 8.17883 17.6149 8.16772 17.6233C7.64862 18.0136 6.93389 18.0136 6.41479 17.6233C6.40372 17.6149 6.39233 17.6067 6.38184 17.5977C5.59108 16.9149 4.01413 15.4644 2.62939 13.645C1.25907 11.8446 0 9.58242 0 7.29126C0.000220301 3.26697 3.26697 0.000220298 7.29126 0C11.3157 0 14.5835 3.26684 14.5837 7.29126Z" fill="var(--fill-0, #6B7280)"/>
</svg>
