<svg preserveAspectRatio="none" width="100%" height="100%" overflow="visible" style="display: block;" viewBox="0 0 12.9998 14.333" fill="none" xmlns="http://www.w3.org/2000/svg">
<path id="Vector (Stroke)" d="M7.22139 12.917C7.35947 12.6779 7.66488 12.5954 7.90401 12.7334C8.14315 12.8715 8.22471 13.1779 8.08663 13.417C7.75915 13.9838 7.15435 14.3328 6.49971 14.333C5.84489 14.333 5.23937 13.984 4.91182 13.417C4.77374 13.1779 4.8553 12.8715 5.09444 12.7334C5.33357 12.5953 5.63996 12.6779 5.77803 12.917C5.92696 13.1745 6.20218 13.333 6.49971 13.333C6.79722 13.3328 7.0726 13.1746 7.22139 12.917ZM9.99971 4.5C9.99971 2.56864 8.43101 1.00026 6.49971 1C4.56819 1 2.99971 2.56848 2.99971 4.5C2.99971 6.05179 2.75603 7.12184 2.37081 7.9375C1.98914 8.74545 1.48202 9.26619 1.04268 9.71973L1.04366 9.7207C0.999173 9.76946 0.987736 9.84 1.01436 9.90039C1.04099 9.96077 1.10071 9.99995 1.1667 10H11.8327L11.8806 9.99316C11.9265 9.97942 11.965 9.9457 11.9851 9.90039C12.0116 9.84009 12.0001 9.76945 11.9558 9.7207V9.71973C11.5156 9.26601 11.0091 8.74488 10.6276 7.9375C10.2423 7.12171 9.99971 6.05168 9.99971 4.5ZM10.9997 4.5C10.9997 5.94728 11.2257 6.8626 11.5319 7.51074C11.762 7.99775 12.0463 8.35499 12.361 8.69629L12.6853 9.03613L12.696 9.04785C13.0069 9.38953 13.087 9.88319 12.9001 10.3057C12.7132 10.7279 12.2945 11 11.8327 11H1.16573C0.703716 10.9997 0.285697 10.7265 0.0993221 10.3037C-0.0870279 9.88097 -0.00698462 9.38817 0.3044 9.04688L0.315142 9.03613C0.757918 8.57901 1.15983 8.15995 1.46651 7.51074C1.77266 6.86263 1.99971 5.94724 1.99971 4.5C1.99971 2.0162 4.01591 0 6.49971 0C8.9833 0.000256477 10.9997 2.01636 10.9997 4.5Z" fill="var(--fill-0, white)"/>
</svg>
