<svg preserveAspectRatio="none" width="100%" height="100%" overflow="visible" style="display: block;" viewBox="0 0 16.0054 17.6701" fill="none" xmlns="http://www.w3.org/2000/svg">
<path id="Vector (Stroke)" d="M8.5779 0.297662C8.82394 0.029945 9.20006 -0.0658022 9.53786 0.045709L9.68337 0.108209L9.81619 0.194147C10.1034 0.418673 10.2339 0.798742 10.1345 1.15997C10.1328 1.16622 10.1307 1.17234 10.1287 1.17852L8.52908 6.19512C8.52662 6.20282 8.52409 6.21099 8.52126 6.21856C8.48296 6.32109 8.49681 6.43636 8.55935 6.52618C8.62189 6.61595 8.72533 6.66911 8.83474 6.66876H14.6697C15.1839 6.66781 15.6528 6.96265 15.8748 7.42657C16.097 7.89098 16.032 8.4417 15.7078 8.84161C15.6986 8.85297 15.6887 8.8643 15.6785 8.87481L7.42849 17.3748L7.42654 17.3729C7.14442 17.6795 6.69153 17.7599 6.32204 17.5623C5.94457 17.3604 5.75751 16.9243 5.87087 16.5115L5.87673 16.492L7.47634 11.4754L7.48415 11.452C7.52245 11.3495 7.50758 11.2351 7.44509 11.1453C7.38255 11.0555 7.28012 11.0014 7.17068 11.0018H1.33572V11.0008C0.821479 11.0018 0.352659 10.7079 0.130638 10.244C-0.0915671 9.77949 -0.0266806 9.22881 0.29763 8.82891L0.326927 8.79571L8.57693 0.295709L8.5779 0.297662ZM1.06911 9.46563C0.992754 9.56489 0.977884 9.69886 1.03201 9.81231C1.08758 9.92845 1.20599 10.0022 1.33474 10.0018H7.1697C7.60665 10.001 8.01659 10.2144 8.26638 10.5731C8.51184 10.9256 8.57007 11.374 8.42751 11.7781L8.42947 11.7791L6.94216 16.4393L14.9353 8.20391C15.0116 8.10457 15.0267 7.97162 14.9724 7.85821C14.9168 7.74211 14.7994 7.66832 14.6707 7.66876H8.83572V7.66778C8.39869 7.66859 7.98885 7.45614 7.73904 7.09747C7.49343 6.74473 7.43403 6.29575 7.57693 5.89141H7.57595L9.06228 1.23028L1.06911 9.46563Z" fill="url(#paint0_linear_0_428)"/>
<defs>
<linearGradient id="paint0_linear_0_428" x1="8.00269" y1="-2.53627e-09" x2="8.00269" y2="17.6701" gradientUnits="userSpaceOnUse">
<stop stop-color="#F37B39"/>
<stop offset="1" stop-color="#D65A18"/>
</linearGradient>
</defs>
</svg>
