<svg preserveAspectRatio="none" width="100%" height="100%" overflow="visible" style="display: block;" viewBox="0 0 16.25 17.9163" fill="none" xmlns="http://www.w3.org/2000/svg">
<path id="Vector (Stroke)" d="M15 7.91626H1.25V15.625C1.25 16.1995 1.71677 16.666 2.29126 16.6663H13.9587C14.5332 16.666 15 16.1995 15 15.625V7.91626ZM10.8337 3.95874V2.91626H5.41626V3.95874C5.41604 4.30373 5.1363 4.58374 4.79126 4.58374C4.4464 4.58352 4.16648 4.3036 4.16626 3.95874V2.91626H2.29126C1.71677 2.91648 1.25 3.3842 1.25 3.95874V6.66626H15V3.95874C15 3.3842 14.5332 2.91648 13.9587 2.91626H12.0837V3.95874C12.0835 4.3036 11.8036 4.58352 11.4587 4.58374C11.1137 4.58374 10.834 4.30373 10.8337 3.95874ZM16.25 15.625C16.25 16.8899 15.2236 17.916 13.9587 17.9163H2.29126C1.02641 17.916 0 16.8899 0 15.625V3.95874C0 2.69384 1.02641 1.66648 2.29126 1.66626H4.16626V0.625C4.16626 0.279958 4.44627 0.00021991 4.79126 0C5.13644 0 5.41626 0.279822 5.41626 0.625V1.66626H10.8337V0.625C10.8337 0.279822 11.1136 0 11.4587 0C11.8037 0.000219588 12.0837 0.279958 12.0837 0.625V1.66626H13.9587C15.2236 1.66648 16.25 2.69384 16.25 3.95874V15.625Z" fill="var(--fill-0, #6B7280)"/>
</svg>
