<svg preserveAspectRatio="none" width="100%" height="100%" overflow="visible" style="display: block;" viewBox="0 0 17.9176 17.9178" fill="none" xmlns="http://www.w3.org/2000/svg">
<path id="Vector (Stroke)" d="M16.5384 0.0586282C16.867 -0.0562865 17.2274 0.000418184 17.5015 0.205113L17.6151 0.302769L17.7127 0.416294C17.9171 0.690153 17.9736 1.04996 17.8592 1.37821L17.8604 1.37943L12.4442 17.2132C12.303 17.6249 11.9198 17.9064 11.4847 17.9175C11.0498 17.9284 10.6543 17.667 10.4923 17.2632L7.84212 10.6543L7.79696 10.5579C7.6822 10.34 7.49303 10.1681 7.26229 10.0757L0.654624 7.42557C0.250841 7.26355 -0.0105581 6.86804 0.000327435 6.43314L0.0174173 6.27201C0.0842747 5.90549 0.344474 5.59719 0.704673 5.47367L16.5384 0.0574075V0.0586282ZM8.87484 9.92557C8.88426 9.94242 8.89513 9.9585 8.90414 9.97562L9.00179 10.188L11.442 16.2769L16.0794 2.7222L8.87484 9.92557ZM1.63973 6.47464L7.72738 8.91605C7.81824 8.95243 7.90526 8.9959 7.98983 9.043L15.1981 1.83597L1.63973 6.47464Z" fill="var(--fill-0, #6B7280)"/>
</svg>
