<svg preserveAspectRatio="none" width="100%" height="100%" overflow="visible" style="display: block;" viewBox="0 0 17.9128 17.9128" fill="none" xmlns="http://www.w3.org/2000/svg">
<path id="Vector (Stroke)" d="M8.26904 0C8.87657 0.000282204 9.45938 0.241722 9.88892 0.671387L17.1436 7.92603C18.1692 8.95824 18.1692 10.6255 17.1436 11.6577L11.6577 17.1436C10.6255 18.1692 8.95824 18.1692 7.92603 17.1436L0.671387 9.88892C0.241722 9.45938 0.000282204 8.87657 0 8.26904V2.29126C0.00022012 1.02655 1.02655 0.00022012 2.29126 0H8.26904ZM5.20874 5C5.09353 5 5 5.09353 5 5.20874L5.01587 5.28931C5.04738 5.36428 5.1222 5.41626 5.20874 5.41626C5.29505 5.4161 5.36889 5.36408 5.40039 5.28931L5.41626 5.20874L5.40039 5.12695C5.37927 5.07706 5.33927 5.03687 5.28931 5.01587L5.20874 5ZM6.25 5.20874C6.24978 5.78356 5.78356 6.24978 5.20874 6.25C4.6696 6.25 4.2258 5.84002 4.17236 5.31494L4.16626 5.20874L4.17236 5.10132C4.22598 4.57643 4.66974 4.16626 5.20874 4.16626L5.31494 4.17236C5.84002 4.2258 6.25 4.6696 6.25 5.20874ZM1.25 8.26782C1.25006 8.54407 1.35981 8.80982 1.55518 9.00513L8.80615 16.2561C9.31688 16.7636 10.1227 16.7955 10.6702 16.3513L10.7764 16.2561L16.2561 10.7764L16.3513 10.6702C16.7955 10.1227 16.7636 9.3181 16.2561 8.80737V8.80615L9.00513 1.55518C8.80982 1.35981 8.54407 1.25006 8.26782 1.25H2.29126C1.7169 1.25022 1.25022 1.7169 1.25 2.29126V8.26782Z" fill="var(--fill-0, #6B7280)"/>
</svg>
