<svg preserveAspectRatio="none" width="100%" height="100%" overflow="visible" style="display: block;" viewBox="0 0 16 16" fill="none" xmlns="http://www.w3.org/2000/svg">
<g id="SVG">
<path id="Vector" d="M4.66667 12.6667H3.21C2.78228 12.6679 2.38514 12.4451 2.16333 12.0793C1.95019 11.7118 1.94917 11.2585 2.16067 10.89L4.79733 6.33333" stroke="var(--stroke-0, #94A3B8)" stroke-linecap="round" stroke-linejoin="round"/>
<path id="Vector_2" d="M7.33333 12.6667H12.802C13.2276 12.6634 13.6207 12.4385 13.8393 12.0733C14.0495 11.7069 14.0495 11.2565 13.8393 10.89L13.022 9.47667" stroke="var(--stroke-0, #94A3B8)" stroke-linecap="round" stroke-linejoin="round"/>
<path id="Vector_3" d="M9.33333 10.6667L7.33333 12.6667L9.33333 14.6667" stroke="var(--stroke-0, #94A3B8)" stroke-linecap="round" stroke-linejoin="round"/>
<path id="Vector_4" d="M5.52867 9.064L4.79733 6.33333L2.06667 7.06533" stroke="var(--stroke-0, #94A3B8)" stroke-linecap="round" stroke-linejoin="round"/>
<path id="Vector_5" d="M6.22933 3.874L6.958 2.61267C7.17082 2.24166 7.56239 2.0092 7.99 2C8.4146 1.99921 8.80742 2.22484 9.02067 2.592L11.6493 7.154" stroke="var(--stroke-0, #94A3B8)" stroke-linecap="round" stroke-linejoin="round"/>
<path id="Vector_6" d="M8.91867 6.422L11.6493 7.154L12.3807 4.42333" stroke="var(--stroke-0, #94A3B8)" stroke-linecap="round" stroke-linejoin="round"/>
</g>
</svg>
