<svg preserveAspectRatio="none" width="100%" height="100%" overflow="visible" style="display: block;" viewBox="0 0 16 16" fill="none" xmlns="http://www.w3.org/2000/svg">
<g id="SVG">
<path id="Vector" d="M4.66667 10.8667C6.13333 10.8667 7.33333 9.64667 7.33333 8.16667C7.33333 7.39333 6.95333 6.66 6.19333 6.04C5.43333 5.42 4.86 4.5 4.66667 3.53333C4.47333 4.5 3.90667 5.42667 3.14 6.04C2.37333 6.65333 2 7.4 2 8.16667C2 9.64667 3.2 10.8667 4.66667 10.8667V10.8667" stroke="var(--stroke-0, #9CA3AF)" stroke-linecap="round" stroke-linejoin="round"/>
<path id="Vector_2" d="M8.37333 4.4C8.83184 3.66742 9.15687 2.85936 9.33333 2.01333C9.66667 3.68 10.6667 5.28 12 6.34667C13.3333 7.41333 14 8.68 14 10.0133C14.0078 11.898 12.878 13.6012 11.1388 14.327C9.39947 15.0528 7.39414 14.6578 6.06 13.3267" stroke="var(--stroke-0, #9CA3AF)" stroke-linecap="round" stroke-linejoin="round"/>
</g>
</svg>
