<svg preserveAspectRatio="none" width="100%" height="100%" overflow="visible" style="display: block;" viewBox="0 0 16 16" fill="none" xmlns="http://www.w3.org/2000/svg">
<g id="SVG">
<path id="Vector" d="M13.3333 8.66667C13.3333 12 11 13.6667 8.22667 14.6333C8.08144 14.6825 7.92369 14.6802 7.78 14.6267C5 13.6667 2.66667 12 2.66667 8.66667V4C2.66667 3.63206 2.96539 3.33333 3.33333 3.33333C4.66667 3.33333 6.33333 2.53333 7.49333 1.52C7.78512 1.27071 8.21488 1.27071 8.50667 1.52C9.67333 2.54 11.3333 3.33333 12.6667 3.33333C13.0346 3.33333 13.3333 3.63206 13.3333 4V8.66667" stroke="var(--stroke-0, #047857)" stroke-linecap="round" stroke-linejoin="round"/>
<path id="Vector_2" d="M6 8L7.33333 9.33333L10 6.66667" stroke="var(--stroke-0, #047857)" stroke-linecap="round" stroke-linejoin="round"/>
</g>
</svg>
