<svg preserveAspectRatio="none" width="100%" height="100%" overflow="visible" style="display: block;" viewBox="0 0 20 20" fill="none" xmlns="http://www.w3.org/2000/svg">
<g id="SVG">
<path id="Vector" d="M8.55667 17.5C8.8544 18.0156 9.40459 18.3333 10 18.3333C10.5954 18.3333 11.1456 18.0156 11.4433 17.5" stroke="var(--stroke-0, #171717)" stroke-width="1.25" stroke-linecap="round" stroke-linejoin="round"/>
<path id="Vector_2" d="M2.71833 12.7717C2.49591 13.0155 2.4383 13.3675 2.57142 13.6695C2.70455 13.9715 3.00332 14.1664 3.33333 14.1667H16.6667C16.9966 14.1668 17.2956 13.9722 17.4291 13.6704C17.5626 13.3687 17.5054 13.0166 17.2833 12.7725C16.175 11.63 15 10.4158 15 6.66667C15 3.90709 12.7596 1.66667 10 1.66667C7.24042 1.66667 5 3.90709 5 6.66667C5 10.4158 3.82417 11.63 2.71833 12.7717" stroke="var(--stroke-0, #171717)" stroke-width="1.25" stroke-linecap="round" stroke-linejoin="round"/>
</g>
</svg>
