<svg preserveAspectRatio="none" width="100%" height="100%" overflow="visible" style="display: block;" viewBox="0 0 17.917 16.2504" fill="none" xmlns="http://www.w3.org/2000/svg">
<path id="Vector (Stroke)" d="M15.833 1.25H2.08301V9.79199C2.08318 10.3671 2.54981 10.833 3.125 10.833H14.792C15.367 10.8328 15.8328 10.367 15.833 9.79199V1.25ZM17.083 9.79199C17.0828 11.0574 16.0574 12.0828 14.792 12.083H10.4668L13.5674 15.1826C13.8115 15.4267 13.8115 15.8233 13.5674 16.0674C13.3233 16.3115 12.9267 16.3115 12.6826 16.0674L8.95801 12.3418L5.2334 16.0674C4.98935 16.3111 4.59359 16.3112 4.34961 16.0674C4.10553 15.8233 4.10553 15.4267 4.34961 15.1826L7.4502 12.083H3.125C1.85946 12.083 0.833184 11.0575 0.833008 9.79199V1.25H0.625C0.279822 1.25 0 0.970178 0 0.625C0 0.279822 0.279822 0 0.625 0H17.292C17.637 0.000176202 17.917 0.279931 17.917 0.625C17.917 0.970069 17.637 1.24982 17.292 1.25H17.083V9.79199Z" fill="var(--fill-0, #6B7280)"/>
</svg>
