<svg preserveAspectRatio="none" width="100%" height="100%" overflow="visible" style="display: block;" viewBox="0 0 20 20" fill="none" xmlns="http://www.w3.org/2000/svg">
<g id="SVG">
<path id="Vector" d="M3.66667 2H7C7.36794 2 7.66667 2.29872 7.66667 2.66667V6C7.66667 6.36794 7.36794 6.66667 7 6.66667H3.66667C3.29872 6.66667 3 6.36794 3 6V2.66667C3 2.29872 3.29872 2 3.66667 2V2" stroke="var(--stroke-0, white)" stroke-linecap="round" stroke-linejoin="round"/>
<path id="Vector_2" d="M12.8333 2H16.1666C16.5346 2 16.8333 2.29872 16.8333 2.66667V6C16.8333 6.36794 16.5346 6.66667 16.1666 6.66667H12.8333C12.4653 6.66667 12.1666 6.36794 12.1666 6V2.66667C12.1666 2.29872 12.4653 2 12.8333 2V2" stroke="var(--stroke-0, white)" stroke-linecap="round" stroke-linejoin="round"/>
<path id="Vector_3" d="M12.8333 11.1667H16.1666C16.5346 11.1667 16.8333 11.4654 16.8333 11.8333V15.1667C16.8333 15.5346 16.5346 15.8333 16.1666 15.8333H12.8333C12.4653 15.8333 12.1666 15.5346 12.1666 15.1667V11.8333C12.1666 11.4654 12.4653 11.1667 12.8333 11.1667V11.1667" stroke="var(--stroke-0, white)" stroke-linecap="round" stroke-linejoin="round"/>
<path id="Vector_4" d="M3.66667 11.1667H7C7.36794 11.1667 7.66667 11.4654 7.66667 11.8333V15.1667C7.66667 15.5346 7.36794 15.8333 7 15.8333H3.66667C3.29872 15.8333 3 15.5346 3 15.1667V11.8333C3 11.4654 3.29872 11.1667 3.66667 11.1667V11.1667" stroke="var(--stroke-0, white)" stroke-linecap="round" stroke-linejoin="round"/>
</g>
</svg>
