<svg preserveAspectRatio="none" width="100%" height="100%" overflow="visible" style="display: block;" viewBox="0 0 24 24" fill="none" xmlns="http://www.w3.org/2000/svg">
<g id="SVG">
<path id="Vector" d="M4 14C3.61375 14.0013 3.26128 13.7801 3.09455 13.4317C2.92782 13.0832 2.97666 12.67 3.22 12.37L13.12 2.17C13.273 1.99345 13.5278 1.94633 13.7337 2.0565C13.9397 2.16668 14.0419 2.40478 13.98 2.63L12.06 8.65C11.9451 8.95757 11.9885 9.30197 12.1761 9.57143C12.3637 9.84088 12.6717 10.0011 13 10H20C20.3863 9.99868 20.7387 10.2199 20.9055 10.5683C21.0722 10.9168 21.0233 11.33 20.78 11.63L10.88 21.83C10.727 22.0065 10.4722 22.0537 10.2663 21.9435C10.0603 21.8333 9.95805 21.5952 10.02 21.37L11.94 15.35C12.0549 15.0424 12.0115 14.698 11.8239 14.4286C11.6363 14.1591 11.3283 13.9989 11 14H4" stroke="var(--stroke-0, #F16F26)" stroke-width="1.5" stroke-linecap="round" stroke-linejoin="round"/>
</g>
</svg>
