<svg preserveAspectRatio="none" width="100%" height="100%" overflow="visible" style="display: block;" viewBox="0 0 16 16" fill="none" xmlns="http://www.w3.org/2000/svg">
<g id="SVG">
<path id="Vector" d="M6.66709 8H9.33376M6.66709 5.33333H9.33376M9.33376 14V12C9.33376 11.2641 8.73631 10.6667 8.00043 10.6667C7.26454 10.6667 6.66709 11.2641 6.66709 12V14M4.00043 6.66667H2.66709C1.93071 6.66667 1.33376 7.26362 1.33376 8V12.6667C1.33376 13.403 1.93071 14 2.66709 14H13.3338C14.0701 14 14.6671 13.403 14.6671 12.6667V6C14.6671 5.26362 14.0701 4.66667 13.3338 4.66667H12.0004M4.00043 14V3.33333C4.00043 2.59695 4.59738 2 5.33376 2H10.6671C11.4035 2 12.0004 2.59695 12.0004 3.33333V14" stroke="var(--stroke-0, #171717)" stroke-linecap="round" stroke-linejoin="round"/>
</g>
</svg>
