<svg preserveAspectRatio="none" width="100%" height="100%" overflow="visible" style="display: block;" viewBox="0 0 20 20" fill="none" xmlns="http://www.w3.org/2000/svg">
<g id="SVG">
<path id="Vector" d="M8.33333 10H11.6667" stroke="var(--stroke-0, #9CA3AF)" stroke-width="1.25" stroke-linecap="round" stroke-linejoin="round"/>
<path id="Vector_2" d="M8.33333 6.66667H11.6667" stroke="var(--stroke-0, #9CA3AF)" stroke-width="1.25" stroke-linecap="round" stroke-linejoin="round"/>
<path id="Vector_3" d="M11.6667 17.5V15C11.6667 14.0801 10.9199 13.3333 10 13.3333C9.08014 13.3333 8.33333 14.0801 8.33333 15V17.5" stroke="var(--stroke-0, #9CA3AF)" stroke-width="1.25" stroke-linecap="round" stroke-linejoin="round"/>
<path id="Vector_4" d="M5 8.33333H3.33333C2.41286 8.33333 1.66667 9.07952 1.66667 10V15.8333C1.66667 16.7538 2.41286 17.5 3.33333 17.5H16.6667C17.5871 17.5 18.3333 16.7538 18.3333 15.8333V7.5C18.3333 6.57953 17.5871 5.83333 16.6667 5.83333H15" stroke="var(--stroke-0, #9CA3AF)" stroke-width="1.25" stroke-linecap="round" stroke-linejoin="round"/>
<path id="Vector_5" d="M5 17.5V4.16667C5 3.24619 5.74619 2.5 6.66667 2.5H13.3333C14.2538 2.5 15 3.24619 15 4.16667V17.5" stroke="var(--stroke-0, #9CA3AF)" stroke-width="1.25" stroke-linecap="round" stroke-linejoin="round"/>
</g>
</svg>
