<svg preserveAspectRatio="none" width="100%" height="100%" overflow="visible" style="display: block;" viewBox="0 0 17.9163 16.25" fill="none" xmlns="http://www.w3.org/2000/svg">
<path id="Vector (Stroke)" d="M16.6663 5.625C16.6663 5.05032 16.1997 4.58374 15.625 4.58374H12.9163V15H15.625C16.1995 15 16.666 14.5332 16.6663 13.9587V5.625ZM6.25 15H11.6663V4.58374H6.25V15ZM1.25 13.9587C1.25022 14.5331 1.7169 14.9998 2.29126 15H5V4.58374H2.29126C1.71677 4.58396 1.25 5.05046 1.25 5.625V13.9587ZM11.6663 2.29126C11.666 1.71677 11.1995 1.25 10.625 1.25H7.29126C6.7169 1.25022 6.25022 1.7169 6.25 2.29126V3.33374H11.6663V2.29126ZM12.9163 3.33374H15.625C16.89 3.33374 17.9163 4.35996 17.9163 5.625V13.9587C17.916 15.2236 16.8899 16.25 15.625 16.25H2.29126C1.02655 16.2498 0.000219878 15.2235 0 13.9587V5.625C0 4.3601 1.02641 3.33396 2.29126 3.33374H5V2.29126C5.00022 1.02655 6.02655 0.000220201 7.29126 0H10.625C11.8899 0 12.916 1.02641 12.9163 2.29126V3.33374Z" fill="var(--fill-0, #6B7280)"/>
</svg>
