<svg preserveAspectRatio="none" width="100%" height="100%" overflow="visible" style="display: block;" viewBox="0 0 17.9163 16.25" fill="none" xmlns="http://www.w3.org/2000/svg">
<path id="Vector (Stroke)" d="M10 13.125C10 12.5505 9.53323 12.084 8.95874 12.0837C8.38406 12.0837 7.91626 12.5503 7.91626 13.125V15H10V13.125ZM10.625 7.5C10.9702 7.5 11.25 7.77982 11.25 8.125C11.25 8.47018 10.9702 8.75 10.625 8.75H7.29126C6.94627 8.74978 6.66626 8.47004 6.66626 8.125C6.66626 7.77996 6.94627 7.50022 7.29126 7.5H10.625ZM10.625 4.16626C10.97 4.16626 11.2498 4.44627 11.25 4.79126C11.25 5.13644 10.9702 5.41626 10.625 5.41626H7.29126C6.94627 5.41604 6.66626 5.1363 6.66626 4.79126C6.66648 4.4464 6.9464 4.16648 7.29126 4.16626H10.625ZM16.6663 5.625C16.6663 5.05032 16.1997 4.58374 15.625 4.58374H14.5837V15H15.625C16.1995 15 16.666 14.5332 16.6663 13.9587V5.625ZM1.25 13.9587C1.25022 14.5331 1.7169 14.9998 2.29126 15H3.33374V7.08374H2.29126C1.71677 7.08396 1.25 7.55046 1.25 8.125V13.9587ZM13.3337 2.29126C13.3335 1.71677 12.8658 1.25 12.2913 1.25H5.625C5.05046 1.25 4.58396 1.71677 4.58374 2.29126V15H6.66626V13.125C6.66626 11.86 7.6937 10.8337 8.95874 10.8337C10.2236 10.834 11.25 11.8601 11.25 13.125V15H13.3337V2.29126ZM14.5837 3.33374H15.625C16.89 3.33374 17.9163 4.35996 17.9163 5.625V13.9587C17.916 15.2236 16.8899 16.25 15.625 16.25H2.29126C1.02655 16.2498 0.000219878 15.2235 0 13.9587V8.125C3.22449e-07 6.8601 1.02641 5.83396 2.29126 5.83374H3.33374V2.29126C3.33396 1.02641 4.3601 0 5.625 0H12.2913C13.5562 0 14.5835 1.02641 14.5837 2.29126V3.33374Z" fill="var(--fill-0, #6B7280)"/>
</svg>
