<svg preserveAspectRatio="none" width="100%" height="100%" overflow="visible" style="display: block;" viewBox="0 0 14.5837 17.9163" fill="none" xmlns="http://www.w3.org/2000/svg">
<path id="Vector (Stroke)" d="M0 15.625V2.29126C0.000221571 1.02655 1.02655 0.00022012 2.29126 0H8.95874V0.0012207C9.65719 0.000465381 10.3271 0.276904 10.8203 0.771484L13.8086 3.75977C14.3051 4.25329 14.5846 4.92499 14.5837 5.625V15.625C14.5837 16.89 13.5563 17.9163 12.2913 17.9163H2.29126C1.02641 17.916 0 16.8899 0 15.625ZM10.625 12.5C10.9702 12.5 11.25 12.7798 11.25 13.125C11.25 13.4702 10.9702 13.75 10.625 13.75H3.95874C3.61356 13.75 3.33374 13.4702 3.33374 13.125C3.33374 12.7798 3.61356 12.5 3.95874 12.5H10.625ZM10.625 9.16626C10.97 9.16626 11.2498 9.44627 11.25 9.79126C11.25 10.1364 10.9702 10.4163 10.625 10.4163H3.95874C3.61356 10.4163 3.33374 10.1364 3.33374 9.79126C3.33396 9.44627 3.6137 9.16626 3.95874 9.16626H10.625ZM5.625 5.83374C5.97018 5.83374 6.25 6.11356 6.25 6.45874C6.24978 6.80373 5.97004 7.08374 5.625 7.08374H3.95874C3.6137 7.08374 3.33396 6.80373 3.33374 6.45874C3.33374 6.11356 3.61356 5.83374 3.95874 5.83374H5.625ZM9.58374 4.79126C9.58374 4.90587 9.67669 4.99978 9.79126 5H13.1836C13.1179 4.87062 13.0321 4.75021 12.9272 4.646L9.9353 1.65405C9.83157 1.55002 9.7123 1.46545 9.58374 1.40015V4.79126ZM1.25 15.625C1.25 16.1995 1.71677 16.666 2.29126 16.6663H12.2913C12.8659 16.6663 13.3337 16.1997 13.3337 15.625V6.25H9.79126C8.98634 6.24978 8.33374 5.59623 8.33374 4.79126V1.25H2.29126C1.7169 1.25022 1.25022 1.7169 1.25 2.29126V15.625Z" fill="var(--fill-0, #6B7280)"/>
</svg>
