<svg preserveAspectRatio="none" width="100%" height="100%" overflow="visible" style="display: block;" viewBox="0 0 20 20" fill="none" xmlns="http://www.w3.org/2000/svg">
<g id="SVG">
<path id="Vector" d="M13.3333 17.5V15.8333C13.3333 13.9924 11.8409 12.5 10 12.5H5C3.15905 12.5 1.66667 13.9924 1.66667 15.8333V17.5" stroke="var(--stroke-0, #9CA3AF)" stroke-width="1.25" stroke-linecap="round" stroke-linejoin="round"/>
<path id="Vector_2" d="M13.3333 2.60667C14.8035 2.9878 15.8302 4.31456 15.8302 5.83333C15.8302 7.35211 14.8035 8.67886 13.3333 9.06" stroke="var(--stroke-0, #9CA3AF)" stroke-width="1.25" stroke-linecap="round" stroke-linejoin="round"/>
<path id="Vector_3" d="M18.3333 17.5V15.8333C18.3322 14.3143 17.3042 12.9881 15.8333 12.6083" stroke="var(--stroke-0, #9CA3AF)" stroke-width="1.25" stroke-linecap="round" stroke-linejoin="round"/>
<path id="Vector_4" d="M4.16667 5.83333C4.16667 7.67305 5.66028 9.16667 7.5 9.16667C9.33972 9.16667 10.8333 7.67305 10.8333 5.83333C10.8333 3.99362 9.33972 2.5 7.5 2.5C5.66028 2.5 4.16667 3.99362 4.16667 5.83333V5.83333" stroke="var(--stroke-0, #9CA3AF)" stroke-width="1.25" stroke-linecap="round" stroke-linejoin="round"/>
</g>
</svg>
